{
  "accessors": [
    {
      "bufferView": 2,
      "componentType": 5126,
      "count": 878,
      "max": [
        0.29487600922584534,
        -0.15914399921894073,
        1.2077679634094238
      ],
      "min": [
        -0.29487600922584534,
        -0.38144999742507935,
        0.9133110046386719
      ],
      "type": "VEC3"
    },
    {
      "bufferView": 2,
      "byteOffset": 10536,
      "componentType": 5126,
      "count": 878,
      "max": [
        0.9982943534851074,
        0.9996543526649475,
        1.0
      ],
      "min": [
        -0.9982943534851074,
        -0.9996543526649475,
        -1.0
      ],
      "type": "VEC3"
    },
    {
      "bufferView": 1,
      "componentType": 5126,
      "count": 878,
      "max": [
        1.0,
        1.0
      ],
      "min": [
        0.0,
        0.0
      ],
      "type": "VEC2"
    },
    {
      "bufferView": 0,
      "componentType": 5125,
      "count": 4560,
      "type": "SCALAR"
    },
    {
      "bufferView": 2,
      "byteOffset": 21072,
      "componentType": 5126,
      "count": 17598,
      "max": [
        0.44155898690223694,
        0.44155800342559814,
        1.4351439476013184
      ],
      "min": [
        -0.44155898690223694,
        -0.44155699014663696,
        0.07467199862003326
      ],
      "type": "VEC3"
    },
    {
      "bufferView": 2,
      "byteOffset": 232248,
      "componentType": 5126,
      "count": 17598,
      "max": [
        0.9999921321868896,
        0.9999921321868896,
        1.0
      ],
      "min": [
        -0.9999921321868896,
        -0.9999918937683105,
        -1.0
      ],
      "type": "VEC3"
    },
    {
      "bufferView": 1,
      "byteOffset": 7024,
      "componentType": 5126,
      "count": 17598,
      "max": [
        1.0,
        1.0
      ],
      "min": [
        0.0,
        0.0
      ],
      "type": "VEC2"
    },
    {
      "bufferView": 0,
      "byteOffset": 18240,
      "componentType": 5125,
      "count": 99840,
      "type": "SCALAR"
    }
  ],
  "asset": {
    "extras": {
      "author": "alex.schade429 (https://sketchfab.com/alex.schade429)",
      "license": "CC-BY-NC-4.0 (http://creativecommons.org/licenses/by-nc/4.0/)",
      "source": "https://sketchfab.com/3d-models/inky-20b7ffef8eb44fd9b891fd18d871d8a6",
      "title": "Inky"
    },
    "generator": "Sketchfab-12.66.0",
    "version": "2.0"
  },
  "bufferViews": [
    {
      "buffer": 0,
      "byteLength": 417600,
      "name": "floatBufferViews",
      "target": 34963
    },
    {
      "buffer": 0,
      "byteLength": 147808,
      "byteOffset": 417600,
      "byteStride": 8,
      "name": "floatBufferViews",
      "target": 34962
    },
    {
      "buffer": 0,
      "byteLength": 443424,
      "byteOffset": 565408,
      "byteStride": 12,
      "name": "floatBufferViews",
      "target": 34962
    }
  ],
  "buffers": [
    {
      "byteLength": 1008832,
      "uri": "scene.bin"
    }
  ],
  "materials": [
    {
      "doubleSided": true,
      "name": "ghostyblinn1SG",
      "pbrMetallicRoughness": {
        "baseColorFactor": [
          0.0,
          0.0,
          0.0,
          1.0
        ],
        "metallicFactor": 0.0,
        "roughnessFactor": 0.6
      }
    },
    {
      "doubleSided": true,
      "name": "ghostyphongE1SG",
      "pbrMetallicRoughness": {
        "baseColorFactor": [
          0.17000000000000004,
          0.7100000000000003,
          0.9899999999999997,
          1.0
        ],
        "metallicFactor": 0.0,
        "roughnessFactor": 0.6
      }
    }
  ],
  "meshes": [
    {
      "name": "Object_0",
      "primitives": [
        {
          "attributes": {
            "NORMAL": 1,
            "POSITION": 0,
            "TEXCOORD_0": 2
          },
          "indices": 3,
          "material": 0,
          "mode": 4
        }
      ]
    },
    {
      "name": "Object_1",
      "primitives": [
        {
          "attributes": {
            "NORMAL": 5,
            "POSITION": 4,
            "TEXCOORD_0": 6
          },
          "indices": 7,
          "material": 1,
          "mode": 4
        }
      ]
    }
  ],
  "nodes": [
    {
      "children": [
        1
      ],
      "matrix": [
        1.0,
        0.0,
        0.0,
        0.0,
        0.0,
        2.220446049250313e-16,
        -1.0,
        0.0,
        0.0,
        1.0,
        2.220446049250313e-16,
        0.0,
        0.0,
        0.0,
        0.0,
        1.0
      ],
      "name": "Sketchfab_model"
    },
    {
      "children": [
        2,
        3
      ],
      "name": "INKY.obj.cleaner.gles"
    },
    {
      "mesh": 0,
      "name": "Object_2"
    },
    {
      "mesh": 1,
      "name": "Object_3"
    }
  ],
  "scene": 0,
  "scenes": [
    {
      "name": "Sketchfab_Scene",
      "nodes": [
        0
      ]
    }
  ]
}
